<svg width="1336" height="592" viewBox="0 0 1336 592" fill="none" xmlns="http://www.w3.org/2000/svg">
<path d="M124.598 94.6514C132.597 92.7722 152.909 83.3762 170.163 60.8254" stroke="#8CFFDA" stroke-width="3.41333" stroke-linecap="round"/>
<path d="M131.215 108.42C135.746 110.539 147.707 113.133 159.301 106.556" stroke="#8CFFDA" stroke-width="3.41333" stroke-linecap="round"/>
<path d="M119.082 77.1793C120.618 74.2772 123.42 66.6034 122.343 59.1248" stroke="#8CFFDA" stroke-width="3.41333" stroke-linecap="round"/>
<path d="M1153.91 557.525C1152.43 562.305 1151.51 574.509 1159.63 585.085" stroke="#494B83" stroke-width="3.41333" stroke-linecap="round"/>
<path d="M1183.18 541.198C1186.26 542.319 1194.25 544.036 1201.51 541.938" stroke="#494B83" stroke-width="3.41333" stroke-linecap="round"/>
<rect x="932.261" y="124.579" width="292.536" height="292.536" rx="17.9699" transform="rotate(23.639 932.261 124.579)" stroke="#EBEBEB" stroke-width="1.55053"/>
<rect x="398.278" y="423.978" width="292.536" height="292.536" rx="17.9699" transform="rotate(23.639 398.278 423.978)" stroke="#EBEBEB" stroke-width="1.55053"/>
<path fill-rule="evenodd" clip-rule="evenodd" d="M383.977 228.556C379.344 228.962 374.54 229.598 373.301 229.97C372.063 230.343 367.758 231.38 363.736 232.274C359.714 233.169 355.953 234.17 355.376 234.501C354.801 234.83 353.025 235.492 351.431 235.97C342.33 238.702 334.655 242.338 323.981 248.973C313.095 255.74 302.682 267.596 298.749 277.701C296.924 282.389 296.618 283.982 296.554 289.121C296.486 294.536 296.68 295.538 298.632 299.858C303.927 311.572 319.903 321.847 342.903 328.328C357.415 332.418 376.86 335.127 386.861 334.453C391.338 334.151 396.237 333.923 397.748 333.946C399.258 333.968 400.831 333.448 401.243 332.791C401.656 332.135 402.253 331.922 402.57 332.319C402.887 332.716 403.156 332.266 403.168 331.32C403.187 329.801 401.932 329.666 392.384 330.163C380.688 330.773 360.567 328.818 349.962 326.042C346.416 325.113 341.627 323.858 339.32 323.252C333.903 321.828 328.425 319.345 314.232 311.879C310.723 310.033 304.258 302.649 302.322 298.275C299.489 291.877 299.975 285.692 303.989 277.055C308.564 267.207 320.302 255.724 333.243 248.432C335.108 247.383 337.269 246.135 338.046 245.659C342.494 242.938 356.56 237.884 367.347 235.131C387.266 230.046 420.247 230.394 432.629 235.818C433.889 236.371 436.462 237.531 438.347 238.397C440.612 239.438 441.701 239.57 441.559 238.787C441.147 236.516 437.025 234.667 422.66 230.314C417.334 228.7 394.296 227.653 383.977 228.556ZM422.737 246.654C422.723 247.711 429.501 251.324 431.538 251.345C434.028 251.371 444.843 256.942 452.832 262.313C459.354 266.699 461.211 268.713 463.689 274.088C469.173 285.988 464.274 299.82 450.538 311.213C443.149 317.342 437.682 320.285 427.11 323.826C422.333 325.427 419.477 328.034 420.421 329.935C420.838 330.775 431.514 327.721 436.011 325.475C437.278 324.842 439.838 323.565 441.701 322.635C458.415 314.293 470.325 298.901 470.494 285.423C470.549 281.028 469.119 275.275 466.984 271.298C464.503 266.677 458.9 260.937 454.672 258.685C435.379 248.408 422.774 243.659 422.737 246.654ZM413.682 328.234C412.942 329.65 414.544 331.945 416.27 331.942L418.025 331.939L416.65 329.757C415.212 327.474 414.319 327.017 413.682 328.234ZM407.942 329.693C407.736 330.324 407.122 330.554 406.579 330.205C406.033 329.853 405.265 330.319 404.862 331.245C404.229 332.7 404.436 332.925 406.424 332.95C408.143 332.972 408.874 332.426 409.345 330.773C409.841 329.03 409.799 328.564 409.145 328.556C408.689 328.55 408.148 329.062 407.942 329.693Z" fill="#8CFFDA"/>
<circle cx="797.002" cy="282.018" r="12.95" stroke="#F6E6C6" stroke-width="2.1"/>
<circle cx="651.002" cy="377" r="12.95" stroke="#F6E6C6" stroke-width="2.1"/>
<circle cx="804.703" cy="296.018" r="13.65" stroke="#F6E6C6" stroke-width="0.7"/>
</svg>
